<svg xmlns="http://www.w3.org/2000/svg" xmlns:xlink="http://www.w3.org/1999/xlink" contentStyleType="text/css" height="760px" preserveAspectRatio="none" style="width:1833px;height:760px;background:#FFFFFF;" version="1.1" viewBox="0 0 1833 760" width="1833px" zoomAndPan="magnify"><title>Register a new book as librarian</title><defs/><g><text fill="#000000" font-family="sans-serif" font-size="14" font-weight="bold" lengthAdjust="spacing" textLength="214.7373" x="808.5234" y="30.1074">Register a new book as librarian</text><rect fill="#FFFFFF" height="534.9473" style="stroke:#181818;stroke-width:1.0;" width="10" x="39.9653" y="133.2422"/><rect fill="#FFFFFF" height="511.6563" style="stroke:#181818;stroke-width:1.0;" width="10" x="350.4849" y="156.5332"/><rect fill="#FFFFFF" height="319.9102" style="stroke:#181818;stroke-width:1.0;" width="10" x="355.4849" y="339.2793"/><rect fill="#FFFFFF" height="440.0742" style="stroke:#181818;stroke-width:1.0;" width="10" x="598.8101" y="187.8242"/><rect fill="#FFFFFF" height="62.582" style="stroke:#181818;stroke-width:1.0;" width="10" x="755.3335" y="219.1152"/><rect fill="#FFFFFF" height="219.0371" style="stroke:#181818;stroke-width:1.0;" width="10" x="755.3335" y="377.5703"/><rect fill="#FFFFFF" height="31.291" style="stroke:#181818;stroke-width:1.0;" width="10" x="1165.5664" y="471.4434"/><rect fill="#FFFFFF" height="31.291" style="stroke:#181818;stroke-width:1.0;" width="10" x="1423.0171" y="408.8613"/><rect fill="#FFFFFF" height="31.291" style="stroke:#181818;stroke-width:1.0;" width="10" x="1423.0171" y="534.0254"/><rect fill="#FFFFFF" height="417.7832" style="stroke:#181818;stroke-width:1.0;" width="10" x="1545.4648" y="250.4063"/><rect fill="none" height="50.582" style="stroke:#000000;stroke-width:1.5;" width="366.7388" x="313.2021" y="296.6973"/><line style="stroke:#181818;stroke-width:0.5;stroke-dasharray:5.0,5.0;" x1="44" x2="44" y1="123.2422" y2="677.1895"/><line style="stroke:#181818;stroke-width:0.5;stroke-dasharray:5.0,5.0;" x1="355.2021" x2="355.2021" y1="123.2422" y2="677.1895"/><line style="stroke:#181818;stroke-width:0.5;stroke-dasharray:5.0,5.0;" x1="603.6792" x2="603.6792" y1="123.2422" y2="677.1895"/><line style="stroke:#181818;stroke-width:0.5;stroke-dasharray:5.0,5.0;" x1="759.9199" x2="759.9199" y1="123.2422" y2="677.1895"/><line style="stroke:#181818;stroke-width:0.5;stroke-dasharray:5.0,5.0;" x1="912.7471" x2="912.7471" y1="123.2422" y2="677.1895"/><line style="stroke:#181818;stroke-width:0.5;stroke-dasharray:5.0,5.0;" x1="1170.4844" x2="1170.4844" y1="123.2422" y2="677.1895"/><line style="stroke:#181818;stroke-width:0.5;stroke-dasharray:5.0,5.0;" x1="1427.6484" x2="1427.6484" y1="123.2422" y2="677.1895"/><line style="stroke:#181818;stroke-width:0.5;stroke-dasharray:5.0,5.0;" x1="1550.3857" x2="1550.3857" y1="123.2422" y2="677.1895"/><line style="stroke:#181818;stroke-width:0.5;stroke-dasharray:5.0,5.0;" x1="1713.5439" x2="1713.5439" y1="123.2422" y2="677.1895"/><text fill="#000000" font-family="sans-serif" font-size="14" lengthAdjust="spacing" textLength="73.9307" x="5" y="119.7285">Anonymous</text><ellipse cx="44.9653" cy="53.1211" fill="#E2E2F0" rx="8" ry="8" style="stroke:#181818;stroke-width:0.5;"/><path d="M44.9653,61.1211 L44.9653,88.1211 M31.9653,69.1211 L57.9653,69.1211 M44.9653,88.1211 L31.9653,103.1211 M44.9653,88.1211 L57.9653,103.1211 " fill="none" style="stroke:#181818;stroke-width:0.5;"/><text fill="#000000" font-family="sans-serif" font-size="14" lengthAdjust="spacing" textLength="73.9307" x="5" y="691.2969">Anonymous</text><ellipse cx="44.9653" cy="703.3105" fill="#E2E2F0" rx="8" ry="8" style="stroke:#181818;stroke-width:0.5;"/><path d="M44.9653,711.3105 L44.9653,738.3105 M31.9653,719.3105 L57.9653,719.3105 M44.9653,738.3105 L31.9653,753.3105 M44.9653,738.3105 L57.9653,753.3105 " fill="none" style="stroke:#181818;stroke-width:0.5;"/><rect fill="#E2E2F0" height="32.6211" rx="2.5" ry="2.5" style="stroke:#181818;stroke-width:0.5;" width="64.5654" x="323.2021" y="89.6211"/><text fill="#000000" font-family="sans-serif" font-size="14" lengthAdjust="spacing" textLength="50.5654" x="330.2021" y="111.7285">:System</text><rect fill="#E2E2F0" height="32.6211" rx="2.5" ry="2.5" style="stroke:#181818;stroke-width:0.5;" width="64.5654" x="323.2021" y="676.1895"/><text fill="#000000" font-family="sans-serif" font-size="14" lengthAdjust="spacing" textLength="50.5654" x="330.2021" y="698.2969">:System</text><rect fill="#E2E2F0" height="32.6211" rx="2.5" ry="2.5" style="stroke:#181818;stroke-width:0.5;" width="132.2617" x="537.6792" y="89.6211"/><text fill="#000000" font-family="sans-serif" font-size="14" lengthAdjust="spacing" textLength="118.2617" x="544.6792" y="111.7285">Ctrl:BookController</text><rect fill="#E2E2F0" height="32.6211" rx="2.5" ry="2.5" style="stroke:#181818;stroke-width:0.5;" width="132.2617" x="537.6792" y="676.1895"/><text fill="#000000" font-family="sans-serif" font-size="14" lengthAdjust="spacing" textLength="118.2617" x="544.6792" y="698.2969">Ctrl:BookController</text><rect fill="#E2E2F0" height="32.6211" rx="2.5" ry="2.5" style="stroke:#181818;stroke-width:0.5;" width="140.8271" x="689.9199" y="89.6211"/><text fill="#000000" font-family="sans-serif" font-size="14" lengthAdjust="spacing" textLength="126.8271" x="696.9199" y="111.7285">service:BookService</text><rect fill="#E2E2F0" height="32.6211" rx="2.5" ry="2.5" style="stroke:#181818;stroke-width:0.5;" width="140.8271" x="689.9199" y="676.1895"/><text fill="#000000" font-family="sans-serif" font-size="14" lengthAdjust="spacing" textLength="126.8271" x="696.9199" y="698.2969">service:BookService</text><rect fill="#E2E2F0" height="32.6211" rx="2.5" ry="2.5" style="stroke:#181818;stroke-width:0.5;" width="144.7373" x="840.7471" y="89.6211"/><text fill="#000000" font-family="sans-serif" font-size="14" lengthAdjust="spacing" textLength="130.7373" x="847.7471" y="111.7285">repo:BookRepository</text><rect fill="#E2E2F0" height="32.6211" rx="2.5" ry="2.5" style="stroke:#181818;stroke-width:0.5;" width="144.7373" x="840.7471" y="676.1895"/><text fill="#000000" font-family="sans-serif" font-size="14" lengthAdjust="spacing" textLength="130.7373" x="847.7471" y="698.2969">repo:BookRepository</text><rect fill="#E2E2F0" height="32.6211" rx="2.5" ry="2.5" style="stroke:#181818;stroke-width:0.5;" width="350.1641" x="995.4844" y="89.6211"/><text fill="#000000" font-family="sans-serif" font-size="14" lengthAdjust="spacing" textLength="336.1641" x="1002.4844" y="111.7285">repoImpl:MongoBookRepository / JPABookRepository</text><rect fill="#E2E2F0" height="32.6211" rx="2.5" ry="2.5" style="stroke:#181818;stroke-width:0.5;" width="350.1641" x="995.4844" y="676.1895"/><text fill="#000000" font-family="sans-serif" font-size="14" lengthAdjust="spacing" textLength="336.1641" x="1002.4844" y="698.2969">repoImpl:MongoBookRepository / JPABookRepository</text><rect fill="#E2E2F0" height="32.6211" rx="2.5" ry="2.5" style="stroke:#181818;stroke-width:0.5;" width="144.7373" x="1355.6484" y="89.6211"/><text fill="#000000" font-family="sans-serif" font-size="14" lengthAdjust="spacing" textLength="130.7373" x="1362.6484" y="111.7285">mapper:BookMapper</text><rect fill="#E2E2F0" height="32.6211" rx="2.5" ry="2.5" style="stroke:#181818;stroke-width:0.5;" width="144.7373" x="1355.6484" y="676.1895"/><text fill="#000000" font-family="sans-serif" font-size="14" lengthAdjust="spacing" textLength="130.7373" x="1362.6484" y="698.2969">mapper:BookMapper</text><rect fill="#E2E2F0" height="32.6211" rx="2.5" ry="2.5" style="stroke:#181818;stroke-width:0.5;" width="80.1582" x="1510.3857" y="89.6211"/><text fill="#000000" font-family="sans-serif" font-size="14" lengthAdjust="spacing" textLength="66.1582" x="1517.3857" y="111.7285">book:Book</text><rect fill="#E2E2F0" height="32.6211" rx="2.5" ry="2.5" style="stroke:#181818;stroke-width:0.5;" width="80.1582" x="1510.3857" y="676.1895"/><text fill="#000000" font-family="sans-serif" font-size="14" lengthAdjust="spacing" textLength="66.1582" x="1517.3857" y="698.2969">book:Book</text><rect fill="#E2E2F0" height="32.6211" rx="2.5" ry="2.5" style="stroke:#181818;stroke-width:0.5;" width="227.2402" x="1600.5439" y="89.6211"/><text fill="#000000" font-family="sans-serif" font-size="14" lengthAdjust="spacing" textLength="213.2402" x="1607.5439" y="111.7285">dataModel:JPABook / MongoBook</text><rect fill="#E2E2F0" height="32.6211" rx="2.5" ry="2.5" style="stroke:#181818;stroke-width:0.5;" width="227.2402" x="1600.5439" y="676.1895"/><text fill="#000000" font-family="sans-serif" font-size="14" lengthAdjust="spacing" textLength="213.2402" x="1607.5439" y="698.2969">dataModel:JPABook / MongoBook</text><rect fill="#FFFFFF" height="534.9473" style="stroke:#181818;stroke-width:1.0;" width="10" x="39.9653" y="133.2422"/><rect fill="#FFFFFF" height="511.6563" style="stroke:#181818;stroke-width:1.0;" width="10" x="350.4849" y="156.5332"/><rect fill="#FFFFFF" height="319.9102" style="stroke:#181818;stroke-width:1.0;" width="10" x="355.4849" y="339.2793"/><rect fill="#FFFFFF" height="440.0742" style="stroke:#181818;stroke-width:1.0;" width="10" x="598.8101" y="187.8242"/><rect fill="#FFFFFF" height="62.582" style="stroke:#181818;stroke-width:1.0;" width="10" x="755.3335" y="219.1152"/><rect fill="#FFFFFF" height="219.0371" style="stroke:#181818;stroke-width:1.0;" width="10" x="755.3335" y="377.5703"/><rect fill="#FFFFFF" height="31.291" style="stroke:#181818;stroke-width:1.0;" width="10" x="1165.5664" y="471.4434"/><rect fill="#FFFFFF" height="31.291" style="stroke:#181818;stroke-width:1.0;" width="10" x="1423.0171" y="408.8613"/><rect fill="#FFFFFF" height="31.291" style="stroke:#181818;stroke-width:1.0;" width="10" x="1423.0171" y="534.0254"/><rect fill="#FFFFFF" height="417.7832" style="stroke:#181818;stroke-width:1.0;" width="10" x="1545.4648" y="250.4063"/><polygon fill="#181818" points="338.4849,152.5332,348.4849,156.5332,338.4849,160.5332,342.4849,156.5332" style="stroke:#181818;stroke-width:1.0;"/><line style="stroke:#181818;stroke-width:1.0;" x1="49.9653" x2="344.4849" y1="156.5332" y2="156.5332"/><text fill="#000000" font-family="sans-serif" font-size="13" font-weight="bold" lengthAdjust="spacing" textLength="7.23" x="56.9653" y="151.2705">1</text><text fill="#000000" font-family="sans-serif" font-size="13" lengthAdjust="spacing" textLength="270.2896" x="68.1953" y="151.2705">requests book registration based on given data</text><polygon fill="#181818" points="586.8101,183.8242,596.8101,187.8242,586.8101,191.8242,590.8101,187.8242" style="stroke:#181818;stroke-width:1.0;"/><line style="stroke:#181818;stroke-width:1.0;" x1="360.4849" x2="592.8101" y1="187.8242" y2="187.8242"/><text fill="#000000" font-family="sans-serif" font-size="13" font-weight="bold" lengthAdjust="spacing" textLength="7.23" x="367.4849" y="182.5615">2</text><text fill="#000000" font-family="sans-serif" font-size="13" lengthAdjust="spacing" textLength="208.0952" x="378.7148" y="182.5615">registerBook(RegisterBookRequest)</text><polygon fill="#181818" points="743.3335,215.1152,753.3335,219.1152,743.3335,223.1152,747.3335,219.1152" style="stroke:#181818;stroke-width:1.0;"/><line style="stroke:#181818;stroke-width:1.0;" x1="608.8101" x2="749.3335" y1="219.1152" y2="219.1152"/><text fill="#000000" font-family="sans-serif" font-size="13" font-weight="bold" lengthAdjust="spacing" textLength="7.23" x="615.8101" y="213.8525">3</text><text fill="#000000" font-family="sans-serif" font-size="13" lengthAdjust="spacing" textLength="114.1499" x="627.04" y="213.8525">create(title, isbn, ...)</text><polygon fill="#181818" points="1533.4648,246.4063,1543.4648,250.4063,1533.4648,254.4063,1537.4648,250.4063" style="stroke:#181818;stroke-width:1.0;"/><line style="stroke:#181818;stroke-width:1.0;" x1="765.3335" x2="1539.4648" y1="250.4063" y2="250.4063"/><text fill="#000000" font-family="sans-serif" font-size="13" font-weight="bold" lengthAdjust="spacing" textLength="7.23" x="772.3335" y="245.1436">4</text><text fill="#000000" font-family="sans-serif" font-size="13" lengthAdjust="spacing" textLength="107.6499" x="783.5635" y="245.1436">Book(title, isbn, ...)</text><polygon fill="#181818" points="619.8101,277.6973,609.8101,281.6973,619.8101,285.6973,615.8101,281.6973" style="stroke:#181818;stroke-width:1.0;"/><line style="stroke:#181818;stroke-width:1.0;stroke-dasharray:2.0,2.0;" x1="613.8101" x2="759.3335" y1="281.6973" y2="281.6973"/><text fill="#000000" font-family="sans-serif" font-size="13" font-weight="bold" lengthAdjust="spacing" textLength="7.23" x="625.8101" y="276.4346">5</text><text fill="#000000" font-family="sans-serif" font-size="13" lengthAdjust="spacing" textLength="104.0635" x="637.04" y="276.4346">Book or exception</text><path d="M313.2021,296.6973 L373.373,296.6973 L373.373,305.9883 L363.373,315.9883 L313.2021,315.9883 L313.2021,296.6973 " fill="#EEEEEE" style="stroke:#000000;stroke-width:1.5;"/><rect fill="none" height="50.582" style="stroke:#000000;stroke-width:1.5;" width="366.7388" x="313.2021" y="296.6973"/><text fill="#000000" font-family="sans-serif" font-size="13" font-weight="bold" lengthAdjust="spacing" textLength="15.1709" x="328.2021" y="311.7256">alt</text><text fill="#000000" font-family="sans-serif" font-size="11" font-weight="bold" lengthAdjust="spacing" textLength="128.353" x="388.373" y="310.5674">[If exception is returned]</text><polygon fill="#181818" points="376.4849,335.2793,366.4849,339.2793,376.4849,343.2793,372.4849,339.2793" style="stroke:#181818;stroke-width:1.0;"/><line style="stroke:#181818;stroke-width:1.0;" x1="370.4849" x2="597.8101" y1="339.2793" y2="339.2793"/><text fill="#000000" font-family="sans-serif" font-size="13" font-weight="bold" lengthAdjust="spacing" textLength="7.23" x="382.4849" y="334.0166">6</text><text fill="#000000" font-family="sans-serif" font-size="13" lengthAdjust="spacing" textLength="98.2808" x="393.7148" y="334.0166">Book is duplicate</text><polygon fill="#181818" points="743.3335,373.5703,753.3335,377.5703,743.3335,381.5703,747.3335,377.5703" style="stroke:#181818;stroke-width:1.0;"/><line style="stroke:#181818;stroke-width:1.0;" x1="608.8101" x2="749.3335" y1="377.5703" y2="377.5703"/><text fill="#000000" font-family="sans-serif" font-size="13" font-weight="bold" lengthAdjust="spacing" textLength="7.23" x="615.8101" y="372.3076">7</text><text fill="#000000" font-family="sans-serif" font-size="13" lengthAdjust="spacing" textLength="64.3081" x="627.04" y="372.3076">save(book)</text><polygon fill="#181818" points="1411.0171,404.8613,1421.0171,408.8613,1411.0171,412.8613,1415.0171,408.8613" style="stroke:#181818;stroke-width:1.0;"/><line style="stroke:#181818;stroke-width:1.0;" x1="765.3335" x2="1417.0171" y1="408.8613" y2="408.8613"/><text fill="#000000" font-family="sans-serif" font-size="13" font-weight="bold" lengthAdjust="spacing" textLength="7.23" x="772.3335" y="403.5986">8</text><text fill="#000000" font-family="sans-serif" font-size="13" lengthAdjust="spacing" textLength="210.2852" x="783.5635" y="403.5986">map Book to JPABook / MongoBook</text><polygon fill="#181818" points="776.3335,436.1523,766.3335,440.1523,776.3335,444.1523,772.3335,440.1523" style="stroke:#181818;stroke-width:1.0;"/><line style="stroke:#181818;stroke-width:1.0;stroke-dasharray:2.0,2.0;" x1="770.3335" x2="1427.0171" y1="440.1523" y2="440.1523"/><text fill="#000000" font-family="sans-serif" font-size="13" font-weight="bold" lengthAdjust="spacing" textLength="7.23" x="782.3335" y="434.8896">9</text><text fill="#000000" font-family="sans-serif" font-size="13" lengthAdjust="spacing" textLength="171.9897" x="793.5635" y="434.8896">JPABook / MongoBook object</text><polygon fill="#181818" points="1153.5664,467.4434,1163.5664,471.4434,1153.5664,475.4434,1157.5664,471.4434" style="stroke:#181818;stroke-width:1.0;"/><line style="stroke:#181818;stroke-width:1.0;" x1="765.3335" x2="1159.5664" y1="471.4434" y2="471.4434"/><text fill="#000000" font-family="sans-serif" font-size="13" font-weight="bold" lengthAdjust="spacing" textLength="14.46" x="772.3335" y="466.1807">10</text><text fill="#000000" font-family="sans-serif" font-size="13" lengthAdjust="spacing" textLength="169.8062" x="790.7935" y="466.1807">save(JPABook / MongoBook)</text><polygon fill="#181818" points="776.3335,498.7344,766.3335,502.7344,776.3335,506.7344,772.3335,502.7344" style="stroke:#181818;stroke-width:1.0;"/><line style="stroke:#181818;stroke-width:1.0;stroke-dasharray:2.0,2.0;" x1="770.3335" x2="1169.5664" y1="502.7344" y2="502.7344"/><text fill="#000000" font-family="sans-serif" font-size="13" font-weight="bold" lengthAdjust="spacing" textLength="14.46" x="782.3335" y="497.4717">11</text><text fill="#000000" font-family="sans-serif" font-size="13" lengthAdjust="spacing" textLength="208.1206" x="800.7935" y="497.4717">JPABook / MongoBook or exception</text><polygon fill="#181818" points="1411.0171,530.0254,1421.0171,534.0254,1411.0171,538.0254,1415.0171,534.0254" style="stroke:#181818;stroke-width:1.0;"/><line style="stroke:#181818;stroke-width:1.0;" x1="765.3335" x2="1417.0171" y1="534.0254" y2="534.0254"/><text fill="#000000" font-family="sans-serif" font-size="13" font-weight="bold" lengthAdjust="spacing" textLength="14.46" x="772.3335" y="528.7627">12</text><text fill="#000000" font-family="sans-serif" font-size="13" lengthAdjust="spacing" textLength="210.2852" x="790.7935" y="528.7627">map JPABook / MongoBook to Book</text><polygon fill="#181818" points="776.3335,561.3164,766.3335,565.3164,776.3335,569.3164,772.3335,565.3164" style="stroke:#181818;stroke-width:1.0;"/><line style="stroke:#181818;stroke-width:1.0;stroke-dasharray:2.0,2.0;" x1="770.3335" x2="1427.0171" y1="565.3164" y2="565.3164"/><text fill="#000000" font-family="sans-serif" font-size="13" font-weight="bold" lengthAdjust="spacing" textLength="14.46" x="782.3335" y="560.0537">13</text><text fill="#000000" font-family="sans-serif" font-size="13" lengthAdjust="spacing" textLength="104.0635" x="800.7935" y="560.0537">Book or exception</text><polygon fill="#181818" points="619.8101,592.6074,609.8101,596.6074,619.8101,600.6074,615.8101,596.6074" style="stroke:#181818;stroke-width:1.0;"/><line style="stroke:#181818;stroke-width:1.0;stroke-dasharray:2.0,2.0;" x1="613.8101" x2="759.3335" y1="596.6074" y2="596.6074"/><text fill="#000000" font-family="sans-serif" font-size="13" font-weight="bold" lengthAdjust="spacing" textLength="14.46" x="625.8101" y="591.3447">14</text><text fill="#000000" font-family="sans-serif" font-size="13" lengthAdjust="spacing" textLength="104.0635" x="644.27" y="591.3447">Book or exception</text><polygon fill="#181818" points="376.4849,623.8984,366.4849,627.8984,376.4849,631.8984,372.4849,627.8984" style="stroke:#181818;stroke-width:1.0;"/><line style="stroke:#181818;stroke-width:1.0;stroke-dasharray:2.0,2.0;" x1="370.4849" x2="602.8101" y1="627.8984" y2="627.8984"/><text fill="#000000" font-family="sans-serif" font-size="13" font-weight="bold" lengthAdjust="spacing" textLength="14.46" x="382.4849" y="622.6357">15</text><text fill="#000000" font-family="sans-serif" font-size="13" lengthAdjust="spacing" textLength="104.0635" x="400.9448" y="622.6357">Book or exception</text><polygon fill="#181818" points="60.9653,655.1895,50.9653,659.1895,60.9653,663.1895,56.9653,659.1895" style="stroke:#181818;stroke-width:1.0;"/><line style="stroke:#181818;stroke-width:1.0;stroke-dasharray:2.0,2.0;" x1="54.9653" x2="349.4849" y1="659.1895" y2="659.1895"/><text fill="#000000" font-family="sans-serif" font-size="13" font-weight="bold" lengthAdjust="spacing" textLength="14.46" x="66.9653" y="653.9268">16</text><text fill="#000000" font-family="sans-serif" font-size="13" lengthAdjust="spacing" textLength="89.6099" x="85.4253" y="653.9268">registered book</text><!--SRC=[ZLJ1Rjim3BthAuXScW1jUlTXGDTTCY10aM8V8DjCeCwMF4hsbhyVHTcEDJX3VJ0ew_7nYO-oxeFJLJ233WZEAirhsxSbabB1X0RXX1VZ0n9eiFWRIkT-WlRGc98q6MsLudn7i7cnpbvRr_jDt9zNgjCKJ6KwRGDiYlShaxK2IM6-_ngeARvoZLTd0xccGH9i_9uZFT9WAXJmUueJQufpC67d17dYm1lMUnLmN1uid-wirr8ERTSKHsSlBi-5P_Z-zdAFZvDogbPt7PBKFqees1JcoDXTmGaY1lb-hOC-kXgROgpFIcPzalDjGeWloTUR5seEuUdBQ401XBzwzC4dSqaC9nsCir1gZpKF1bpCW1PYVQLINcGGkyOCf2XYUreiJebufrG4IidHDQW8MTfMPkmHZ2_j8-pt-vqQ4H4SAGfv_mytov1-y2JYdmgxg9vRq0Gud6zVc83LXfuirWhucNMDhH0E1jLzrvYA5IgqzOfyhmVSndRnsHxWXpVs0ZT_8JXWqnCRnvDPB6vsQtdGb5MivYmCLYFxqrB92WvS-O5LKCiIqsIEqbUoTch2VA90rkK7uDiw80KUbqh4rwxLna8R1n7CcVySM7F7xnnvhGAJt3toYeHFJKDoyL-tCymqsWoQhyfjmFagHC_LNm00]--></g></svg>